<svg xmlns="http://www.w3.org/2000/svg" xmlns:xlink="http://www.w3.org/1999/xlink" width="500" zoomAndPan="magnify" viewBox="0 0 375 374.999991" height="500" preserveAspectRatio="xMidYMid meet" version="1.0"><defs><g/><clipPath id="bd4505aa87"><path d="M 161 193 L 215 193 L 215 247.363281 L 161 247.363281 Z M 161 193 " clip-rule="nonzero"/></clipPath><clipPath id="6c93060622"><path d="M 61.945312 150.609375 L 104.695312 150.609375 L 104.695312 193.3125 L 61.945312 193.3125 Z M 61.945312 150.609375 " clip-rule="nonzero"/></clipPath><clipPath id="4799873cc6"><path d="M 270.296875 150.609375 L 313.046875 150.609375 L 313.046875 193.359375 L 270.296875 193.359375 Z M 270.296875 150.609375 " clip-rule="nonzero"/></clipPath><clipPath id="7ebf47026d"><path d="M 87 75.136719 L 288 75.136719 L 288 300.136719 L 87 300.136719 Z M 87 75.136719 " clip-rule="nonzero"/></clipPath><clipPath id="66a3cd2e32"><path d="M 104 93.058594 L 271 93.058594 L 271 279.808594 L 104 279.808594 Z M 104 93.058594 " clip-rule="nonzero"/></clipPath><clipPath id="3a29ec27bb"><path d="M 131 110.726562 L 244.234375 110.726562 L 244.234375 223.976562 L 131 223.976562 Z M 131 110.726562 " clip-rule="nonzero"/></clipPath><clipPath id="2b704fa9bd"><path d="M 61.949219 192.613281 L 313.199219 192.613281 L 313.199219 245.113281 L 61.949219 245.113281 Z M 61.949219 192.613281 " clip-rule="nonzero"/></clipPath><clipPath id="2444661a0d"><path d="M 68.730469 197.617188 L 306.480469 197.617188 L 306.480469 236.617188 L 68.730469 236.617188 Z M 68.730469 197.617188 " clip-rule="nonzero"/></clipPath><clipPath id="2cf4d9503e"><path d="M 178.484375 248.636719 L 196.484375 248.636719 L 196.484375 265.886719 L 178.484375 265.886719 Z M 178.484375 248.636719 " clip-rule="nonzero"/></clipPath></defs><g clip-path="url(#bd4505aa87)"><path fill="#ffffff" d="M 185.839844 246.960938 C 174.496094 246.1875 164.539062 237.289062 161.730469 226.515625 C 159.136719 215.34375 164.285156 202.765625 174.332031 196.933594 C 180.796875 193.09375 188.90625 192.613281 196.058594 194.613281 C 204.894531 197.316406 211.617188 205.140625 213.980469 213.871094 C 216.101562 221.914062 214.570312 231.050781 208.933594 237.386719 C 203.828125 243.71875 195.667969 247.363281 187.507812 247.039062 C 186.949219 247.027344 186.394531 247 185.839844 246.960938 Z M 192.597656 245.695312 C 194.632812 245.519531 194.273438 244.898438 192.425781 244.742188 C 189.117188 244.105469 185.546875 244.089844 182.355469 245.203125 C 185.164062 246.550781 188.898438 246.203125 192.042969 245.800781 Z M 182.578125 243.917969 C 184.03125 242.441406 182.515625 238.917969 181.246094 237.519531 C 178.410156 236.082031 176.210938 233.726562 173.617188 231.949219 C 171.660156 231.242188 169.757812 232.589844 167.867188 233.042969 C 167.859375 234.902344 167.738281 237 169.378906 238.289062 C 172.082031 240.945312 175.347656 243.277344 179.03125 244.332031 C 180.214844 244.390625 181.457031 244.316406 182.578125 243.917969 Z M 198.128906 243.992188 C 202.835938 241.972656 207.25 238.726562 209.90625 234.3125 C 210.859375 233.042969 211.5625 230.820312 209.066406 231.554688 C 205.929688 233.515625 203.097656 235.941406 199.886719 237.800781 C 197.9375 239.332031 196.535156 241.441406 195.152344 243.460938 C 195.636719 244.578125 197.203125 244.3125 198.128906 243.992188 Z M 201.320312 235.878906 C 203.683594 233.949219 207.109375 232.703125 208.351562 229.777344 C 208.910156 227.472656 208.957031 225.089844 209.191406 222.738281 C 206.832031 220.660156 203.9375 219.246094 201.105469 217.914062 C 198.308594 218.136719 196.046875 220.605469 193.835938 222.207031 C 192.65625 222.855469 192.960938 224.308594 192.640625 225.425781 C 192.210938 228.035156 191.714844 230.632812 191.429688 233.261719 C 193.628906 234.882812 196.085938 236.367188 198.761719 236.992188 C 199.730469 237.003906 200.535156 236.351562 201.320312 235.878906 Z M 184.445312 236.285156 C 186.585938 235.472656 189.421875 234.859375 190.429688 232.601562 C 191.175781 229.4375 191.589844 226.199219 191.984375 222.976562 C 189.855469 220.964844 187.582031 218.84375 184.789062 217.792969 C 182.382812 217.753906 180.34375 219.449219 178.199219 220.371094 C 175.316406 221.152344 174.316406 223.757812 174.191406 226.449219 C 173.34375 229.113281 174.316406 231.851562 176.746094 233.320312 C 178.867188 234.875 181.597656 237.355469 184.445312 236.285156 Z M 166.511719 232.550781 C 164.773438 229.355469 163.574219 225.855469 163.097656 222.257812 C 161.378906 222.601562 162.941406 226.792969 163.414062 228.507812 C 164.222656 230.816406 165.464844 232.941406 166.75 235.019531 C 166.984375 234.164062 167.125 233.316406 166.511719 232.550781 Z M 165.761719 218.328125 C 166.523438 217.25 167.730469 216.398438 168.1875 215.167969 C 168.988281 211.4375 170.300781 207.839844 172.175781 204.507812 C 172.097656 202.355469 169.675781 201.046875 168.472656 203.421875 C 165.042969 207.8125 162.347656 213.164062 162.230469 218.8125 C 161.78125 220.75 163.476562 222.15625 164.453125 219.863281 C 164.890625 219.351562 165.328125 218.839844 165.765625 218.328125 Z M 209.953125 220.996094 C 211.410156 219.097656 213.421875 216.847656 212.898438 214.277344 C 211.988281 209.40625 209.46875 204.777344 205.601562 201.601562 C 204.453125 201.117188 202.355469 199.335938 201.554688 201.019531 C 200.371094 203.277344 197.425781 205.414062 198.488281 208.230469 C 199.398438 211.007812 200.058594 213.910156 201.386719 216.527344 C 203.824219 218.417969 206.648438 219.890625 209.488281 221.128906 Z M 177.507812 219.734375 C 179.761719 218.601562 181.949219 217.355469 184.144531 216.121094 C 184.882812 213.550781 185.8125 211.039062 186.679688 208.511719 C 186.800781 205.777344 184.347656 203.816406 182.707031 201.898438 C 181.09375 199.332031 178.367188 201.300781 176.375 202.238281 C 171.996094 204.5625 170.992188 209.679688 169.503906 213.949219 C 169.707031 215.550781 171.183594 216.882812 172.257812 218.078125 C 173.746094 219.5625 175.417969 221.542969 177.507812 219.734375 Z M 193.660156 205.917969 C 194.824219 205.757812 196.125 205.875 197.207031 205.546875 C 198.824219 203.816406 200.25 201.789062 200.921875 199.515625 C 200.109375 197.222656 197.414062 196.175781 195.25 195.394531 C 192.496094 194.582031 189.542969 194.183594 186.683594 194.503906 C 184.617188 195.550781 180.914062 198.59375 183.003906 200.949219 C 184.535156 202.761719 186.167969 204.488281 187.828125 206.1875 C 189.777344 206.203125 191.71875 206.054688 193.660156 205.917969 Z M 193.660156 205.917969 " fill-opacity="1" fill-rule="nonzero"/></g><g clip-path="url(#6c93060622)"><path fill="#090909" d="M 103.667969 193.355469 L 62.898438 193.355469 L 62.898438 193.359375 C 62.382812 193.359375 61.96875 192.945312 61.96875 192.429688 C 61.96875 192.171875 62.074219 191.9375 62.246094 191.769531 L 103.09375 150.96875 C 103.453125 150.605469 104.042969 150.605469 104.40625 150.96875 C 104.585938 151.148438 104.675781 151.386719 104.675781 151.625 L 104.675781 192.429688 C 104.675781 192.945312 104.261719 193.359375 103.75 193.359375 C 103.722656 193.359375 103.695312 193.359375 103.667969 193.355469 " fill-opacity="1" fill-rule="nonzero"/></g><g clip-path="url(#4799873cc6)"><path fill="#090909" d="M 271.324219 193.355469 L 312.09375 193.355469 L 312.09375 193.359375 C 312.605469 193.359375 313.023438 192.945312 313.023438 192.429688 C 313.023438 192.171875 312.917969 191.9375 312.746094 191.769531 L 271.898438 150.96875 C 271.535156 150.605469 270.949219 150.605469 270.585938 150.96875 C 270.40625 151.148438 270.3125 151.386719 270.3125 151.625 L 270.3125 192.429688 C 270.3125 192.945312 270.730469 193.359375 271.242188 193.359375 C 271.269531 193.359375 271.296875 193.359375 271.324219 193.355469 " fill-opacity="1" fill-rule="nonzero"/></g><g clip-path="url(#7ebf47026d)"><path fill="#090909" d="M 281.386719 93.886719 C 237.636719 75.136719 187.636719 75.136719 187.636719 75.136719 C 187.636719 75.136719 137.636719 75.136719 93.886719 93.886719 C 75.136719 187.636719 93.886719 268.886719 187.636719 300.136719 C 281.386719 268.886719 300.136719 187.636719 281.386719 93.886719 Z M 281.386719 93.886719 " fill-opacity="1" fill-rule="nonzero"/></g><path fill="#ffffff" d="M 187.636719 286.910156 C 115.210938 260.941406 87.390625 199.078125 104.886719 102.910156 C 144.28125 87.816406 187.1875 87.636719 187.636719 87.636719 C 188.078125 87.636719 231.125 87.886719 270.386719 102.910156 C 287.878906 199.078125 260.0625 260.941406 187.636719 286.910156 Z M 187.636719 286.910156 " fill-opacity="1" fill-rule="nonzero"/><path fill="#ffffff" d="M 270.386719 102.910156 C 231.125 87.886719 188.078125 87.636719 187.636719 87.636719 L 187.636719 286.910156 C 260.0625 260.941406 287.878906 199.078125 270.386719 102.910156 Z M 270.386719 102.910156 " fill-opacity="1" fill-rule="nonzero"/><g clip-path="url(#66a3cd2e32)"><path fill="#090909" d="M 265.367188 108.621094 C 229.054688 93.058594 187.554688 93.058594 187.554688 93.058594 C 187.554688 93.058594 146.054688 93.058594 109.742188 108.621094 C 94.179688 186.433594 109.742188 253.871094 187.554688 279.808594 C 265.367188 253.871094 280.929688 186.433594 265.367188 108.621094 Z M 265.367188 108.621094 " fill-opacity="1" fill-rule="nonzero"/></g><path fill="#090909" d="M 187.554688 268.832031 C 127.441406 247.277344 104.355469 195.929688 118.875 116.109375 C 151.570312 103.582031 187.183594 103.433594 187.554688 103.433594 C 187.925781 103.433594 223.652344 103.640625 256.238281 116.109375 C 270.757812 195.929688 247.667969 247.277344 187.554688 268.832031 Z M 187.554688 268.832031 " fill-opacity="1" fill-rule="nonzero"/><path fill="#090909" d="M 256.238281 116.109375 C 223.652344 103.640625 187.925781 103.433594 187.554688 103.433594 L 187.554688 268.832031 C 247.667969 247.277344 270.757812 195.929688 256.238281 116.109375 Z M 256.238281 116.109375 " fill-opacity="1" fill-rule="nonzero"/><g clip-path="url(#3a29ec27bb)"><path fill="#ffffff" d="M 134.289062 158.664062 C 136.253906 159.59375 138.203125 160.546875 140.210938 161.566406 C 139.707031 166.863281 139.386719 172.214844 139.261719 177.480469 C 137.824219 178.296875 136.414062 179.074219 135.035156 179.832031 C 134.078125 175.765625 133.59375 171.578125 133.59375 167.367188 C 133.59375 164.449219 133.824219 161.527344 134.289062 158.664062 Z M 188.871094 188.078125 L 189.496094 187.703125 C 194.03125 184.957031 198.703125 182.128906 203.285156 179.394531 C 208.867188 182.753906 213.46875 185.472656 217.703125 187.917969 C 217.621094 193.496094 217.40625 199.152344 217.0625 204.742188 C 212.820312 207.414062 208.191406 210.386719 202.558594 214.046875 C 198.011719 211.292969 193.316406 208.40625 188.871094 205.65625 Z M 186.320312 188.054688 L 186.320312 205.636719 C 182.175781 208.203125 177.363281 211.167969 172.625 214.023438 C 167.144531 210.464844 162.519531 207.496094 158.136719 204.726562 C 157.789062 199.101562 157.570312 193.445312 157.492188 187.894531 C 161.851562 185.378906 166.449219 182.664062 171.910156 179.371094 C 176.332031 182.011719 180.832031 184.734375 185.210938 187.382812 Z M 156.867188 206.941406 C 161.085938 209.597656 165.714844 212.566406 171.363281 216.238281 C 171.402344 217.15625 171.445312 218.078125 171.488281 218.996094 C 164.757812 216.890625 158.59375 213.527344 153.140625 208.988281 C 154.351562 208.332031 155.589844 207.648438 156.867188 206.941406 Z M 173.121094 120.765625 C 168.140625 124.511719 163.707031 127.796875 159.589844 130.792969 C 156.863281 129.257812 154.378906 127.910156 152.03125 126.703125 C 158.246094 121.246094 165.664062 117.265625 173.601562 115.128906 C 173.433594 117.011719 173.269531 118.894531 173.121094 120.765625 Z M 186.339844 148.648438 L 181.726562 151.574219 C 178.605469 153.550781 175.441406 155.558594 172.246094 157.574219 C 167.21875 154.585938 162.859375 152.0625 158.949219 149.871094 C 159.460938 144.238281 160.113281 138.570312 160.886719 133.011719 C 165.152344 129.898438 169.582031 126.617188 174.40625 122.988281 C 178.402344 125.640625 182.628906 128.507812 186.339844 131.027344 Z M 170.972656 159.78125 C 170.800781 165.4375 170.695312 171.28125 170.648438 177.160156 C 165.289062 180.394531 160.683594 183.113281 156.230469 185.6875 C 151.039062 182.636719 146.3125 179.945312 141.8125 177.488281 C 141.9375 172.207031 142.261719 166.855469 142.773438 161.574219 C 147.367188 158.730469 152.25 155.617188 157.664062 152.066406 C 161.628906 154.289062 165.992188 156.820312 170.972656 159.78125 Z M 216.273438 149.875 C 212.367188 152.058594 208.011719 154.578125 202.980469 157.574219 C 199.722656 155.523438 196.5 153.476562 193.320312 151.460938 L 188.886719 148.648438 L 188.886719 131.023438 C 192.601562 128.5 196.835938 125.632812 200.828125 122.984375 C 205.628906 126.59375 210.054688 129.875 214.339844 133 C 215.109375 138.5625 215.765625 144.238281 216.273438 149.875 Z M 215.613281 130.777344 C 211.476562 127.761719 207.042969 124.480469 202.097656 120.753906 C 201.941406 118.882812 201.78125 117.003906 201.613281 115.125 C 209.542969 117.261719 216.953125 121.234375 223.171875 126.683594 C 220.796875 127.902344 218.308594 129.25 215.613281 130.777344 Z M 204.578125 177.164062 C 204.535156 171.386719 204.429688 165.542969 204.253906 159.777344 C 208.71875 157.121094 212.761719 154.769531 216.648438 152.578125 L 217.566406 152.066406 C 222.941406 155.589844 227.820312 158.703125 232.457031 161.574219 C 232.972656 166.890625 233.292969 172.242188 233.417969 177.488281 C 228.90625 179.957031 224.179688 182.640625 219 185.6875 C 214.632812 183.171875 210.027344 180.445312 204.578125 177.164062 Z M 203.847656 216.25 C 209.453125 212.605469 214.085938 209.636719 218.351562 206.945312 C 219.628906 207.65625 220.867188 208.339844 222.074219 208.996094 C 216.617188 213.535156 210.453125 216.894531 203.71875 219.003906 C 203.761719 218.082031 203.804688 217.164062 203.847656 216.25 Z M 235.964844 177.480469 C 235.84375 172.222656 235.523438 166.875 235.015625 161.566406 C 237.023438 160.550781 238.972656 159.59375 240.933594 158.667969 C 241.398438 161.53125 241.632812 164.453125 241.632812 167.367188 C 241.632812 171.582031 241.148438 175.773438 240.191406 179.832031 C 238.808594 179.074219 237.40625 178.296875 235.964844 177.480469 Z M 187.613281 110.738281 C 156.425781 110.738281 131.046875 136.140625 131.046875 167.367188 C 131.046875 198.597656 156.425781 224.003906 187.613281 224.003906 C 218.804688 224.003906 244.175781 198.597656 244.175781 167.367188 C 244.175781 136.140625 218.804688 110.738281 187.613281 110.738281 " fill-opacity="1" fill-rule="nonzero"/></g><g clip-path="url(#2b704fa9bd)"><path fill="#090909" d="M 61.960938 192.613281 L 313.1875 192.613281 L 313.1875 245.113281 L 61.960938 245.113281 L 61.960938 192.613281 " fill-opacity="1" fill-rule="nonzero"/></g><g clip-path="url(#2444661a0d)"><path fill="#ffffff" d="M 68.730469 197.617188 L 306.476562 197.617188 L 306.476562 236.617188 L 68.730469 236.617188 L 68.730469 197.617188 " fill-opacity="1" fill-rule="nonzero"/></g><g clip-path="url(#2cf4d9503e)"><path fill="#ffffff" d="M 187.507812 248.695312 L 190.28125 254.351562 L 196.484375 255.261719 L 191.996094 259.664062 L 193.058594 265.882812 L 187.507812 262.945312 L 181.957031 265.882812 L 183.015625 259.664062 L 178.527344 255.261719 L 184.734375 254.351562 Z M 187.507812 248.695312 " fill-opacity="1" fill-rule="nonzero"/><path fill="#ffffff" d="M 187.464844 248.644531 L 190.242188 254.300781 L 196.445312 255.207031 L 191.957031 259.613281 L 193.015625 265.828125 L 187.464844 262.894531 L 181.917969 265.828125 L 182.976562 259.613281 L 178.484375 255.207031 L 184.691406 254.300781 Z M 187.464844 248.644531 " fill-opacity="1" fill-rule="nonzero"/><path fill="#ffffff" d="M 187.464844 248.644531 L 190.242188 254.300781 L 196.445312 255.207031 L 191.957031 259.613281 L 193.015625 265.828125 L 187.464844 262.894531 L 181.917969 265.828125 L 182.976562 259.613281 L 178.484375 255.207031 L 184.691406 254.300781 Z M 187.464844 248.644531 " fill-opacity="1" fill-rule="nonzero"/><path fill="#ffffff" d="M 187.464844 248.644531 L 190.242188 254.300781 L 196.445312 255.207031 L 191.957031 259.613281 L 193.015625 265.828125 L 187.464844 262.894531 L 181.917969 265.828125 L 182.976562 259.613281 L 178.484375 255.207031 L 184.691406 254.300781 Z M 187.464844 248.644531 " fill-opacity="1" fill-rule="nonzero"/></g><g fill="#090909" fill-opacity="1"><g transform="translate(78.971067, 229.708799)"><g><path d="M 8.671875 0.390625 C 7.117188 0.390625 5.609375 0.195312 4.140625 -0.1875 C 2.679688 -0.570312 1.492188 -1.085938 0.578125 -1.734375 L 2.359375 -5.734375 C 3.222656 -5.171875 4.222656 -4.710938 5.359375 -4.359375 C 6.492188 -4.015625 7.609375 -3.84375 8.703125 -3.84375 C 10.785156 -3.84375 11.828125 -4.363281 11.828125 -5.40625 C 11.828125 -5.957031 11.53125 -6.363281 10.9375 -6.625 C 10.34375 -6.894531 9.390625 -7.175781 8.078125 -7.46875 C 6.628906 -7.78125 5.421875 -8.113281 4.453125 -8.46875 C 3.484375 -8.820312 2.648438 -9.390625 1.953125 -10.171875 C 1.253906 -10.960938 0.90625 -12.03125 0.90625 -13.375 C 0.90625 -14.539062 1.222656 -15.59375 1.859375 -16.53125 C 2.503906 -17.476562 3.460938 -18.226562 4.734375 -18.78125 C 6.003906 -19.332031 7.566406 -19.609375 9.421875 -19.609375 C 10.679688 -19.609375 11.921875 -19.460938 13.140625 -19.171875 C 14.367188 -18.890625 15.453125 -18.472656 16.390625 -17.921875 L 14.71875 -13.890625 C 12.882812 -14.878906 11.109375 -15.375 9.390625 -15.375 C 8.304688 -15.375 7.515625 -15.210938 7.015625 -14.890625 C 6.523438 -14.566406 6.28125 -14.148438 6.28125 -13.640625 C 6.28125 -13.128906 6.570312 -12.742188 7.15625 -12.484375 C 7.75 -12.234375 8.695312 -11.96875 10 -11.6875 C 11.457031 -11.382812 12.664062 -11.050781 13.625 -10.6875 C 14.59375 -10.332031 15.425781 -9.765625 16.125 -8.984375 C 16.832031 -8.210938 17.1875 -7.15625 17.1875 -5.8125 C 17.1875 -4.664062 16.863281 -3.625 16.21875 -2.6875 C 15.582031 -1.757812 14.625 -1.015625 13.34375 -0.453125 C 12.0625 0.109375 10.503906 0.390625 8.671875 0.390625 Z M 8.671875 0.390625 "/></g></g></g><g fill="#090909" fill-opacity="1"><g transform="translate(100.855053, 229.708799)"><g><path d="M 11.609375 0.390625 C 9.578125 0.390625 7.75 -0.0390625 6.125 -0.90625 C 4.507812 -1.769531 3.238281 -2.957031 2.3125 -4.46875 C 1.394531 -5.988281 0.9375 -7.703125 0.9375 -9.609375 C 0.9375 -11.515625 1.394531 -13.222656 2.3125 -14.734375 C 3.238281 -16.253906 4.507812 -17.445312 6.125 -18.3125 C 7.75 -19.175781 9.578125 -19.609375 11.609375 -19.609375 C 13.640625 -19.609375 15.460938 -19.175781 17.078125 -18.3125 C 18.703125 -17.445312 19.976562 -16.253906 20.90625 -14.734375 C 21.832031 -13.222656 22.296875 -11.515625 22.296875 -9.609375 C 22.296875 -7.703125 21.832031 -5.988281 20.90625 -4.46875 C 19.976562 -2.957031 18.703125 -1.769531 17.078125 -0.90625 C 15.460938 -0.0390625 13.640625 0.390625 11.609375 0.390625 Z M 11.609375 -4.125 C 12.578125 -4.125 13.453125 -4.347656 14.234375 -4.796875 C 15.023438 -5.253906 15.648438 -5.898438 16.109375 -6.734375 C 16.566406 -7.566406 16.796875 -8.523438 16.796875 -9.609375 C 16.796875 -10.691406 16.566406 -11.648438 16.109375 -12.484375 C 15.648438 -13.316406 15.023438 -13.957031 14.234375 -14.40625 C 13.453125 -14.863281 12.578125 -15.09375 11.609375 -15.09375 C 10.640625 -15.09375 9.757812 -14.863281 8.96875 -14.40625 C 8.1875 -13.957031 7.566406 -13.316406 7.109375 -12.484375 C 6.648438 -11.648438 6.421875 -10.691406 6.421875 -9.609375 C 6.421875 -8.523438 6.648438 -7.566406 7.109375 -6.734375 C 7.566406 -5.898438 8.1875 -5.253906 8.96875 -4.796875 C 9.757812 -4.347656 10.640625 -4.125 11.609375 -4.125 Z M 11.609375 -4.125 "/></g></g></g><g fill="#090909" fill-opacity="1"><g transform="translate(128.202986, 229.708799)"><g><path d="M 11.5 0.390625 C 9.488281 0.390625 7.679688 -0.0351562 6.078125 -0.890625 C 4.472656 -1.742188 3.210938 -2.925781 2.296875 -4.4375 C 1.390625 -5.957031 0.9375 -7.679688 0.9375 -9.609375 C 0.9375 -11.523438 1.390625 -13.242188 2.296875 -14.765625 C 3.210938 -16.285156 4.472656 -17.472656 6.078125 -18.328125 C 7.679688 -19.179688 9.488281 -19.609375 11.5 -19.609375 C 13.257812 -19.609375 14.84375 -19.296875 16.25 -18.671875 C 17.65625 -18.046875 18.828125 -17.148438 19.765625 -15.984375 L 16.3125 -12.84375 C 15.0625 -14.34375 13.550781 -15.09375 11.78125 -15.09375 C 10.738281 -15.09375 9.804688 -14.863281 8.984375 -14.40625 C 8.171875 -13.957031 7.539062 -13.316406 7.09375 -12.484375 C 6.644531 -11.648438 6.421875 -10.691406 6.421875 -9.609375 C 6.421875 -8.523438 6.644531 -7.566406 7.09375 -6.734375 C 7.539062 -5.898438 8.171875 -5.253906 8.984375 -4.796875 C 9.804688 -4.347656 10.738281 -4.125 11.78125 -4.125 C 13.550781 -4.125 15.0625 -4.875 16.3125 -6.375 L 19.765625 -3.234375 C 18.828125 -2.066406 17.65625 -1.171875 16.25 -0.546875 C 14.84375 0.078125 13.257812 0.390625 11.5 0.390625 Z M 11.5 0.390625 "/></g></g></g><g fill="#090909" fill-opacity="1"><g transform="translate(152.58556, 229.708799)"><g><path d="M 11.5 0.390625 C 9.488281 0.390625 7.679688 -0.0351562 6.078125 -0.890625 C 4.472656 -1.742188 3.210938 -2.925781 2.296875 -4.4375 C 1.390625 -5.957031 0.9375 -7.679688 0.9375 -9.609375 C 0.9375 -11.523438 1.390625 -13.242188 2.296875 -14.765625 C 3.210938 -16.285156 4.472656 -17.472656 6.078125 -18.328125 C 7.679688 -19.179688 9.488281 -19.609375 11.5 -19.609375 C 13.257812 -19.609375 14.84375 -19.296875 16.25 -18.671875 C 17.65625 -18.046875 18.828125 -17.148438 19.765625 -15.984375 L 16.3125 -12.84375 C 15.0625 -14.34375 13.550781 -15.09375 11.78125 -15.09375 C 10.738281 -15.09375 9.804688 -14.863281 8.984375 -14.40625 C 8.171875 -13.957031 7.539062 -13.316406 7.09375 -12.484375 C 6.644531 -11.648438 6.421875 -10.691406 6.421875 -9.609375 C 6.421875 -8.523438 6.644531 -7.566406 7.09375 -6.734375 C 7.539062 -5.898438 8.171875 -5.253906 8.984375 -4.796875 C 9.804688 -4.347656 10.738281 -4.125 11.78125 -4.125 C 13.550781 -4.125 15.0625 -4.875 16.3125 -6.375 L 19.765625 -3.234375 C 18.828125 -2.066406 17.65625 -1.171875 16.25 -0.546875 C 14.84375 0.078125 13.257812 0.390625 11.5 0.390625 Z M 11.5 0.390625 "/></g></g></g><g fill="#090909" fill-opacity="1"><g transform="translate(176.968134, 229.708799)"><g><path d="M 17.34375 -4.203125 L 17.34375 0 L 1.921875 0 L 1.921875 -19.21875 L 17 -19.21875 L 17 -15.015625 L 7.296875 -15.015625 L 7.296875 -11.78125 L 15.84375 -11.78125 L 15.84375 -7.71875 L 7.296875 -7.71875 L 7.296875 -4.203125 Z M 17.34375 -4.203125 "/></g></g></g><g fill="#090909" fill-opacity="1"><g transform="translate(199.538548, 229.708799)"><g><path d="M 10.328125 -5.109375 L 7.359375 -5.109375 L 7.359375 0 L 1.921875 0 L 1.921875 -19.21875 L 10.703125 -19.21875 C 12.441406 -19.21875 13.953125 -18.925781 15.234375 -18.34375 C 16.515625 -17.769531 17.503906 -16.945312 18.203125 -15.875 C 18.898438 -14.8125 19.25 -13.554688 19.25 -12.109375 C 19.25 -10.710938 18.921875 -9.5 18.265625 -8.46875 C 17.617188 -7.4375 16.691406 -6.628906 15.484375 -6.046875 L 19.625 0 L 13.8125 0 Z M 13.75 -12.109375 C 13.75 -13.003906 13.460938 -13.695312 12.890625 -14.1875 C 12.328125 -14.6875 11.488281 -14.9375 10.375 -14.9375 L 7.359375 -14.9375 L 7.359375 -9.3125 L 10.375 -9.3125 C 11.488281 -9.3125 12.328125 -9.550781 12.890625 -10.03125 C 13.460938 -10.519531 13.75 -11.210938 13.75 -12.109375 Z M 13.75 -12.109375 "/></g></g></g><g fill="#090909" fill-opacity="1"><g transform="translate(223.976031, 229.708799)"><g><path d="M 11.609375 0.390625 C 9.578125 0.390625 7.75 -0.0390625 6.125 -0.90625 C 4.507812 -1.769531 3.238281 -2.957031 2.3125 -4.46875 C 1.394531 -5.988281 0.9375 -7.703125 0.9375 -9.609375 C 0.9375 -11.515625 1.394531 -13.222656 2.3125 -14.734375 C 3.238281 -16.253906 4.507812 -17.445312 6.125 -18.3125 C 7.75 -19.175781 9.578125 -19.609375 11.609375 -19.609375 C 13.640625 -19.609375 15.460938 -19.175781 17.078125 -18.3125 C 18.703125 -17.445312 19.976562 -16.253906 20.90625 -14.734375 C 21.832031 -13.222656 22.296875 -11.515625 22.296875 -9.609375 C 22.296875 -7.703125 21.832031 -5.988281 20.90625 -4.46875 C 19.976562 -2.957031 18.703125 -1.769531 17.078125 -0.90625 C 15.460938 -0.0390625 13.640625 0.390625 11.609375 0.390625 Z M 11.609375 -4.125 C 12.578125 -4.125 13.453125 -4.347656 14.234375 -4.796875 C 15.023438 -5.253906 15.648438 -5.898438 16.109375 -6.734375 C 16.566406 -7.566406 16.796875 -8.523438 16.796875 -9.609375 C 16.796875 -10.691406 16.566406 -11.648438 16.109375 -12.484375 C 15.648438 -13.316406 15.023438 -13.957031 14.234375 -14.40625 C 13.453125 -14.863281 12.578125 -15.09375 11.609375 -15.09375 C 10.640625 -15.09375 9.757812 -14.863281 8.96875 -14.40625 C 8.1875 -13.957031 7.566406 -13.316406 7.109375 -12.484375 C 6.648438 -11.648438 6.421875 -10.691406 6.421875 -9.609375 C 6.421875 -8.523438 6.648438 -7.566406 7.109375 -6.734375 C 7.566406 -5.898438 8.1875 -5.253906 8.96875 -4.796875 C 9.757812 -4.347656 10.640625 -4.125 11.609375 -4.125 Z M 11.609375 -4.125 "/></g></g></g><g fill="#090909" fill-opacity="1"><g transform="translate(251.323964, 229.708799)"><g><path d="M 20.203125 -19.21875 L 20.203125 0 L 15.734375 0 L 7.25 -10.234375 L 7.25 0 L 1.921875 0 L 1.921875 -19.21875 L 6.390625 -19.21875 L 14.875 -8.984375 L 14.875 -19.21875 Z M 20.203125 -19.21875 "/></g></g></g><g fill="#090909" fill-opacity="1"><g transform="translate(277.573607, 229.708799)"><g><path d="M 17.34375 -4.203125 L 17.34375 0 L 1.921875 0 L 1.921875 -19.21875 L 17 -19.21875 L 17 -15.015625 L 7.296875 -15.015625 L 7.296875 -11.78125 L 15.84375 -11.78125 L 15.84375 -7.71875 L 7.296875 -7.71875 L 7.296875 -4.203125 Z M 17.34375 -4.203125 "/></g></g></g></svg>